HIERARCHY
ROOT hip
{
  OFFSET 0 0 0
  CHANNELS 6 Xposition Yposition Zposition Zrotation Yrotation Xrotation
  JOINT abdomen
  {
    OFFSET 0 20.6881 -0.73152
    CHANNELS 3 Zrotation Xrotation Yrotation
    JOINT chest
    {
      OFFSET 0 11.7043 -0.48768
      CHANNELS 3 Zrotation Xrotation Yrotation
      JOINT neck
      {
        OFFSET 0 22.1894 -2.19456
        CHANNELS 3 Zrotation Xrotation Yrotation
        JOINT head
        {
          OFFSET -0.24384 7.07133 1.2192
          CHANNELS 3 Zrotation Xrotation Yrotation
          JOINT leftEye
          {
            OFFSET 4.14528 8.04674 8.04672
            CHANNELS 3 Zrotation Xrotation Yrotation
            End Site
            {
              OFFSET 1 0 0
            }
          }
          JOINT rightEye
          {
            OFFSET -3.6576 8.04674 8.04672
            CHANNELS 3 Zrotation Xrotation Yrotation
            End Site
            {
              OFFSET 1 0 0
            }
          }
        }
      }
      JOINT rCollar
      {
        OFFSET -2.68224 19.2634 -4.8768
        CHANNELS 3 Zrotation Xrotation Yrotation
        JOINT rShldr
        {
          OFFSET -8.77824 -1.95073 1.46304
          CHANNELS 3 Zrotation Xrotation Yrotation
          JOINT rForeArm
          {
            OFFSET -28.1742 -1.7115 0.48768
            CHANNELS 3 Zrotation Xrotation Yrotation
            JOINT rHand
            {
              OFFSET -22.5879 0.773209 7.07136
              CHANNELS 3 Zrotation Xrotation Yrotation
              JOINT rThumb1
              {
                OFFSET -1.2192 -0.487915 3.41376
                CHANNELS 3 Zrotation Xrotation Yrotation
                JOINT rThumb2
                {
                  OFFSET -3.37035 -0.52449 3.41376
                  CHANNELS 3 Zrotation Xrotation Yrotation
                  End Site
                  {
                    OFFSET -1.78271 -1.18214 1.43049
                  }
                }
              }
              JOINT rIndex1
              {
                OFFSET -7.75947 0.938293 5.60832
                CHANNELS 3 Zrotation Xrotation Yrotation
                JOINT rIndex2
                {
                  OFFSET -2.54057 -0.884171 1.56538
                  CHANNELS 3 Zrotation Xrotation Yrotation
                  End Site
                  {
                    OFFSET -1.62519 -0.234802 1.16502
                  }
                }
              }
              JOINT rMid1
              {
                OFFSET -8.24714 1.18213 3.41376
                CHANNELS 3 Zrotation Xrotation Yrotation
                JOINT rMid2
                {
                  OFFSET -3.10165 -0.590103 1.0647
                  CHANNELS 3 Zrotation Xrotation Yrotation
                  End Site
                  {
                    OFFSET -2.48547 -0.328903 0.83742
                  }
                }
              }
              JOINT rRing1
              {
                OFFSET -8.82822 0.546677 1.51678
                CHANNELS 3 Zrotation Xrotation Yrotation
                JOINT rRing2
                {
                  OFFSET -2.60934 -0.819778 -0.0198488
                  CHANNELS 3 Zrotation Xrotation Yrotation
                  End Site
                  {
                    OFFSET -2.33842 -0.294052 0.168128
                  }
                }
              }
              JOINT rPinky1
              {
                OFFSET -8.27202 -0.0477905 -0.4584
                CHANNELS 3 Zrotation Xrotation Yrotation
                JOINT rPinky2
                {
                  OFFSET -1.82734 -0.647385 -0.700984
                  CHANNELS 3 Zrotation Xrotation Yrotation
                  End Site
                  {
                    OFFSET -1.69225 -0.51767 -0.607171
                  }
                }
              }
            }
          }
        }
      }
      JOINT lCollar
      {
        OFFSET 2.68224 19.2634 -4.8768
        CHANNELS 3 Zrotation Xrotation Yrotation
        JOINT lShldr
        {
          OFFSET 8.77824 -1.95073 1.46304
          CHANNELS 3 Zrotation Xrotation Yrotation
          JOINT lForeArm
          {
            OFFSET 28.1742 -1.7115 0.48768
            CHANNELS 3 Zrotation Xrotation Yrotation
            JOINT lHand
            {
              OFFSET 22.5879 0.773209 7.07136
              CHANNELS 3 Zrotation Xrotation Yrotation
              JOINT lThumb1
              {
                OFFSET 1.2192 -0.487915 3.41376
                CHANNELS 3 Zrotation Xrotation Yrotation
                JOINT lThumb2
                {
                  OFFSET 3.37035 -0.52449 3.41376
                  CHANNELS 3 Zrotation Xrotation Yrotation
                  End Site
                  {
                    OFFSET 1.78271 -1.18214 1.43049
                  }
                }
              }
              JOINT lIndex1
              {
                OFFSET 7.75947 0.938293 5.60832
                CHANNELS 3 Zrotation Xrotation Yrotation
                JOINT lIndex2
                {
                  OFFSET 2.54057 -0.884171 1.56538
                  CHANNELS 3 Zrotation Xrotation Yrotation
                  End Site
                  {
                    OFFSET 1.62519 -0.234802 1.16502
                  }
                }
              }
              JOINT lMid1
              {
                OFFSET 8.24714 1.18213 3.41376
                CHANNELS 3 Zrotation Xrotation Yrotation
                JOINT lMid2
                {
                  OFFSET 3.10165 -0.590103 1.0647
                  CHANNELS 3 Zrotation Xrotation Yrotation
                  End Site
                  {
                    OFFSET 2.48547 -0.328903 0.83742
                  }
                }
              }
              JOINT lRing1
              {
                OFFSET 8.82822 0.546677 1.51678
                CHANNELS 3 Zrotation Xrotation Yrotation
                JOINT lRing2
                {
                  OFFSET 2.60934 -0.819778 -0.0198488
                  CHANNELS 3 Zrotation Xrotation Yrotation
                  End Site
                  {
                    OFFSET 2.33842 -0.294052 0.168128
                  }
                }
              }
              JOINT lPinky1
              {
                OFFSET 8.27202 -0.0477905 -0.4584
                CHANNELS 3 Zrotation Xrotation Yrotation
                JOINT lPinky2
                {
                  OFFSET 1.82734 -0.647385 -0.700984
                  CHANNELS 3 Zrotation Xrotation Yrotation
                  End Site
                  {
                    OFFSET 1.69225 -0.51767 -0.607171
                  }
                }
              }
            }
          }
        }
      }
    }
  }
  JOINT rButtock
  {
    OFFSET -8.77824 4.35084 1.2192
    CHANNELS 3 Zrotation Xrotation Yrotation
    JOINT rThigh
    {
      OFFSET 0 -1.70687 -2.19456
      CHANNELS 3 Zrotation Xrotation Yrotation
      JOINT rShin
      {
        OFFSET 0 -36.8199 0.73152
        CHANNELS 3 Zrotation Xrotation Yrotation
        JOINT rFoot
        {
          OFFSET 0.73152 -45.1104 -5.12064
          CHANNELS 3 Zrotation Xrotation Yrotation
          End Site
          {
            OFFSET -1.1221 -3.69964 12.103
          }
        }
      }
    }
  }
  JOINT lButtock
  {
    OFFSET 8.77824 4.35084 1.2192
    CHANNELS 3 Zrotation Xrotation Yrotation
    JOINT lThigh
    {
      OFFSET 0 -1.70687 -2.19456
      CHANNELS 3 Zrotation Xrotation Yrotation
      JOINT lShin
      {
        OFFSET 0 -36.8199 0.73152
        CHANNELS 3 Zrotation Xrotation Yrotation
        JOINT lFoot
        {
          OFFSET -0.73152 -45.1104 -5.12064
          CHANNELS 3 Zrotation Xrotation Yrotation
          End Site
          {
            OFFSET 1.1221 -3.69964 12.103
          }
        }
      }
    }
  }
}
MOTION
Frames:	7
Frame Time:	0.00833333
-180.042 11.5415 10.0851 353.389 84.0931 389.052 -23.3572 73.416 -16.1117 -12.9909 -6.61789 -5.53489 5.10295 -15.9738 6.76538 -21.5996 -6.04165 10.0514 -0.0 0.0 0.0 -0.0 0.0 0.0 4.45514e-14 -4.89823e-13 -1.77912e-13 37.5677 18.9387 50.0069 23.6497 -18.4569 -48.5198 -0.769679 -24.1002 -3.60442 1.45269e-09 8.95059e-10 1.16536e-11 2.50297e-09 1.53899e-09 4.87913e-11 1.45269e-09 8.95059e-10 1.16472e-11 7.73091 5.47488 0.417314 1.45268e-09 8.95056e-10 1.16567e-11 2.90554 0.965183 0.102902 1.45269e-09 8.95059e-10 1.16543e-11 10.2786 0.731801 0.0259123 1.45267e-09 8.95056e-10 1.16663e-11 2.22167 -0.733487 -0.20892 4.45068e-14 -4.89787e-13 -1.7826e-13 3.55306 -26.5744 -42.7536 18.5128 -11.2489 -35.1812 0.970759 -26.8066 4.07215 -4.2497e-11 -2.02601e-12 5.49886e-11 -7.18944e-11 -4.39235e-12 9.3956e-11 -4.24978e-11 -2.02164e-12 5.4995e-11 -7.73091 5.47488 -0.417314 -4.24971e-11 -2.02005e-12 5.49886e-11 -2.90554 0.965183 -0.102902 -4.25004e-11 -2.01975e-12 5.49886e-11 -10.2786 0.731801 -0.0259123 -4.2496e-11 -2.01687e-12 5.49886e-11 -2.22167 -0.733487 0.20892 -2.03217e-16 0.0 -3.88251e-19 -24.2135 -10.015 -37.9258 -166.361 72.6782 142.341 7.70802 -46.861 -15.6671 2.03217e-16 0.0 3.88251e-19 21.0103 68.7144 1.46942 -172.935 59.6117 123.938 75.0996 -60.259 42.617
-180.229 11.4819 9.75563 356.358 83.3582 392.099 -22.8353 73.2768 -16.977 -13.4271 -6.73235 -5.72701 5.26382 -15.8808 7.07908 -22.3243 -5.25984 10.7014 -0.0 0.0 0.0 -0.0 0.0 0.0 8.34018e-14 -6.92804e-13 -2.1663e-13 37.4668 19.19 50.8036 23.7669 -18.6698 -48.8683 -0.717788 -23.3322 -3.47542 1.04619e-09 7.17387e-10 4.9519e-10 1.79285e-09 1.2308e-09 8.79826e-10 1.04619e-09 7.17387e-10 4.95184e-10 7.73091 5.47488 0.417314 1.04618e-09 7.17385e-10 4.95192e-10 2.90554 0.965183 0.102902 1.04619e-09 7.17387e-10 4.9519e-10 10.2786 0.731801 0.0259123 1.04618e-09 7.17385e-10 4.95201e-10 2.22167 -0.733487 -0.20892 8.33353e-14 -6.92774e-13 -2.17012e-13 3.35288 -23.375 -38.9892 20.4147 -13.6819 -39.1152 1.04378 -27.5358 4.20763 4.65295e-10 -3.07303e-11 2.42691e-10 7.99298e-10 -5.2002e-11 4.26907e-10 4.65295e-10 -3.07268e-11 2.42696e-10 -7.73091 5.47488 -0.417314 4.65295e-10 -3.0726e-11 2.42691e-10 -2.90554 0.965183 -0.102902 4.65292e-10 -3.07261e-11 2.42689e-10 -10.2786 0.731801 -0.0259123 4.65297e-10 -3.07242e-11 2.42685e-10 -2.22167 -0.733487 0.20892 -2.03217e-16 0.0 -3.88251e-19 -24.7386 -10.4233 -38.1672 -166.512 72.2617 142.029 7.73989 -47.1807 -15.2993 2.03217e-16 0.0 3.88251e-19 19.4117 69.3903 2.52868 -172.864 59.6941 123.703 75.3241 -60.0101 42.2912
-180.553 11.0335 9.18312 360.121 82.7334 396.031 -21.2424 73.0461 -18.6491 -13.7129 -6.93331 -5.93239 5.2883 -15.8393 7.44397 -22.7588 -4.23488 11.5798 -0.0 0.0 0.0 -0.0 0.0 0.0 1.12373e-13 -8.31627e-13 -2.31743e-13 37.337 19.5903 51.6581 23.9261 -18.9623 -49.3599 -0.66748 -22.5511 -3.3458 2.31763e-10 3.5707e-10 1.07763e-09 3.77843e-10 6.09182e-10 1.87496e-09 2.31763e-10 3.57071e-10 1.07763e-09 7.73091 5.47488 0.417314 2.31757e-10 3.57069e-10 1.07763e-09 2.90554 0.965183 0.102902 2.31766e-10 3.57071e-10 1.07763e-09 10.2786 0.731801 0.0259123 2.31752e-10 3.5707e-10 1.07764e-09 2.22167 -0.733487 -0.20892 1.12264e-13 -8.31604e-13 -2.32165e-13 2.52168 -19.7741 -34.9904 22.2391 -16.3084 -43.6506 1.03251 -27.4002 4.18335 1.19622e-09 -6.95915e-11 4.71933e-10 2.05353e-09 -1.16361e-10 8.35498e-10 1.19622e-09 -6.95898e-11 4.71938e-10 -7.73091 5.47488 -0.417314 1.19622e-09 -6.95908e-11 4.71932e-10 -2.90554 0.965183 -0.102902 1.19622e-09 -6.95914e-11 4.71929e-10 -10.2786 0.731801 -0.0259123 1.19622e-09 -6.95907e-11 4.71918e-10 -2.22167 -0.733487 0.20892 -2.03217e-16 0.0 -3.88251e-19 -25.3301 -10.6685 -38.4153 -166.755 71.8178 142.112 7.82169 -47.6212 -14.8493 2.03217e-16 0.0 3.88251e-19 17.1361 69.5211 4.32634 -172.924 59.7398 124.197 75.4978 -60.1838 42.0841
-180.716 10.9071 8.71854 362.172 81.9278 398.102 -19.483 72.7231 -20.4112 -13.9741 -7.11588 -6.12563 5.33825 -15.7884 7.81582 -23.148 -3.14412 12.4858 -0.0 0.0 0.0 -0.0 0.0 0.0 1.36073e-13 -9.44457e-13 -2.37421e-13 37.1818 20.0166 52.4755 24.0911 -19.2697 -49.8886 -0.617686 -21.7447 -3.21349 -5.676e-10 5.5779e-13 1.60533e-09 -1.00979e-09 -4.94314e-12 2.77508e-09 -5.676e-10 5.59289e-13 1.60532e-09 7.73091 5.47488 0.417314 -5.67603e-10 5.57776e-13 1.60532e-09 2.90554 0.965183 0.102902 -5.67595e-10 5.58213e-13 1.60532e-09 10.2786 0.731801 0.0259123 -5.67608e-10 5.60024e-13 1.60533e-09 2.22167 -0.733487 -0.20892 1.35926e-13 -9.44445e-13 -2.37871e-13 0.972947 -15.9017 -31.2468 23.7195 -18.7038 -48.2531 0.973736 -26.7624 4.06702 1.86378e-09 -1.01083e-10 7.85971e-10 3.19723e-09 -1.68211e-10 1.38945e-09 1.86378e-09 -1.01083e-10 7.85977e-10 -7.73091 5.47488 -0.417314 1.86378e-09 -1.01086e-10 7.85969e-10 -2.90554 0.965183 -0.102902 1.86378e-09 -1.01087e-10 7.85965e-10 -10.2786 0.731801 -0.0259123 1.86379e-09 -1.01087e-10 7.85947e-10 -2.22167 -0.733487 0.20892 -2.03217e-16 0.0 -3.88251e-19 -26.0269 -10.9425 -38.6023 -166.991 71.3951 142.292 7.90071 -48.0174 -14.463 2.03217e-16 0.0 3.88251e-19 15.2045 69.4652 5.79827 -172.994 59.763 124.633 75.5376 -60.3705 41.7693
-180.631 11.2919 8.60699 363.619 81.1929 399.549 -18.4177 72.3271 -21.5914 -14.335 -7.1754 -6.28102 5.57412 -15.6675 8.15006 -23.7127 -2.16099 13.2179 -0.0 0.0 0.0 -0.0 0.0 0.0 1.5911e-13 -1.06946e-12 -2.47835e-13 37.0147 20.3581 53.1539 24.2303 -19.5336 -50.3463 -0.567589 -20.901 -3.07655 -9.28906e-10 -1.65701e-10 1.9246e-09 -1.63778e-09 -2.90652e-10 3.32106e-09 -9.28905e-10 -1.65699e-10 1.9246e-09 7.73091 5.47488 0.417314 -9.28906e-10 -1.657e-10 1.9246e-09 2.90554 0.965183 0.102902 -9.28901e-10 -1.657e-10 1.9246e-09 10.2786 0.731801 0.0259123 -9.28913e-10 -1.65697e-10 1.92461e-09 2.22167 -0.733487 -0.20892 1.58956e-13 -1.06946e-12 -2.48282e-13 -1.18356 -12.0445 -28.1544 24.8132 -20.7005 -52.2951 0.906582 -25.9845 3.9278 2.18149e-09 -1.07678e-10 1.22806e-09 3.73685e-09 -1.78292e-10 2.1585e-09 2.18149e-09 -1.07679e-10 1.22807e-09 -7.73091 5.47488 -0.417314 2.18149e-09 -1.07682e-10 1.22806e-09 -2.90554 0.965183 -0.102902 2.18149e-09 -1.07684e-10 1.22805e-09 -10.2786 0.731801 -0.0259123 2.1815e-09 -1.07684e-10 1.22803e-09 -2.22167 -0.733487 0.20892 -2.03217e-16 0.0 -3.88251e-19 -26.8688 -11.437 -38.6635 -167.15 71.0424 142.299 7.91283 -48.2049 -14.2944 2.03217e-16 0.0 3.88251e-19 14.5479 69.6109 5.96603 -172.946 59.7861 124.217 75.3751 -60.1565 41.1322
-180.551 11.5351 8.47013 366.447 80.6769 402.493 -18.2664 71.8431 -22.0639 -14.8514 -7.0743 -6.39772 6.09812 -15.4194 8.4348 -24.5523 -1.35643 13.691 -0.0 0.0 0.0 -0.0 0.0 0.0 1.97373e-13 -1.31751e-12 -2.81121e-13 36.8234 20.6014 53.6447 24.3464 -19.7584 -50.7262 -0.517335 -20.0103 -2.93365 -5.96818e-10 1.06245e-11 2.02614e-09 -1.06482e-09 1.53838e-11 3.50072e-09 -5.96815e-10 1.06266e-11 2.02614e-09 7.73091 5.47488 0.417314 -5.96816e-10 1.0625e-11 2.02614e-09 2.90554 0.965183 0.102902 -5.96811e-10 1.0624e-11 2.02614e-09 10.2786 0.731801 0.0259123 -5.96823e-10 1.06268e-11 2.02615e-09 2.22167 -0.733487 -0.20892 1.97264e-13 -1.31753e-12 -2.81511e-13 -3.91836 -8.49442 -25.6356 25.7354 -22.6918 -55.6661 0.803241 -24.6309 3.6931 2.04169e-09 -7.42549e-11 2.06309e-09 3.48282e-09 -1.21258e-10 3.5987e-09 2.04168e-09 -7.42565e-11 2.0631e-09 -7.73091 5.47488 -0.417314 2.04169e-09 -7.42586e-11 2.06309e-09 -2.90554 0.965183 -0.102902 2.04168e-09 -7.42595e-11 2.06309e-09 -10.2786 0.731801 -0.0259123 2.0417e-09 -7.42598e-11 2.06307e-09 -2.22167 -0.733487 0.20892 -2.03217e-16 0.0 -3.88251e-19 -27.941 -12.2717 -38.5898 -167.2 70.7932 142.031 7.82495 -48.0985 -14.4257 2.03217e-16 0.0 3.88251e-19 15.7037 70.0749 4.24102 -172.717 59.7784 122.542 75.0473 -59.327 40.1369
-180.515 11.7064 8.40786 367.607 79.979 404.047 -18.5483 71.2744 -22.1954 -15.4484 -6.87181 -6.4873 6.80321 -15.0905 8.69359 -25.5215 -0.627372 14.0232 -0.0 0.0 0.0 -0.0 0.0 0.0 2.43517e-13 -1.63468e-12 -3.24935e-13 36.6127 20.8109 54.0069 24.4539 -19.9704 -51.0781 -0.468152 -19.0811 -2.7864 1.55557e-10 3.9589e-10 1.98135e-09 2.36538e-10 6.82755e-10 3.43327e-09 1.55561e-10 3.95892e-10 1.98134e-09 7.73091 5.47488 0.417314 1.55559e-10 3.9589e-10 1.98134e-09 2.90554 0.965183 0.102902 1.55563e-10 3.95888e-10 1.98135e-09 10.2786 0.731801 0.0259123 1.55551e-10 3.9589e-10 1.98136e-09 2.22167 -0.733487 -0.20892 2.43488e-13 -1.63473e-12 -3.2523e-13 -7.11219 -5.17029 -23.4038 26.5259 -24.758 -58.7293 0.675598 -22.6841 3.36808 1.60759e-09 -1.36444e-11 3.18355e-09 2.71769e-09 -1.85603e-11 5.52705e-09 1.60758e-09 -1.36455e-11 3.18356e-09 -7.73091 5.47488 -0.417314 1.60759e-09 -1.36456e-11 3.18355e-09 -2.90554 0.965183 -0.102902 1.60758e-09 -1.36457e-11 3.18354e-09 -10.2786 0.731801 -0.0259123 1.6076e-09 -1.3645e-11 3.18353e-09 -2.22167 -0.733487 0.20892 -2.03217e-16 0.0 -3.88251e-19 -29.1911 -13.3277 -38.422 -167.189 70.6138 141.649 7.67602 -47.7997 -14.7617 2.03217e-16 0.0 3.88251e-19 18.2296 70.6116 1.11215 -172.39 59.6955 120.113 74.6462 -58.127 38.97
